<mxfile host="app.diagrams.net" modified="2022-04-27T15:47:34.062Z" agent="5.0 (Macintosh; Intel Mac OS X 10_15_7) AppleWebKit/605.1.15 (KHTML, like Gecko) Version/15.3 Safari/605.1.15" etag="8oPA_QNdd1SoGc_yZUPY" version="17.4.6" type="github">
  <diagram id="L9F-9Z8XfrysQdAQ085j" name="Page-1">
    <mxGraphModel dx="664" dy="850" grid="0" gridSize="10" guides="1" tooltips="1" connect="1" arrows="1" fold="1" page="0" pageScale="1" pageWidth="827" pageHeight="1169" math="0" shadow="0">
      <root>
        <mxCell id="0" />
        <mxCell id="1" parent="0" />
        <mxCell id="hA2gQA1C5oWBZAAxNgNt-1" value="院系" style="rounded=0;whiteSpace=wrap;html=1;" vertex="1" parent="1">
          <mxGeometry x="360" y="40" width="80" height="40" as="geometry" />
        </mxCell>
        <mxCell id="hA2gQA1C5oWBZAAxNgNt-3" value="选修" style="rhombus;whiteSpace=wrap;html=1;" vertex="1" parent="1">
          <mxGeometry x="280" y="220" width="80" height="40" as="geometry" />
        </mxCell>
        <mxCell id="hA2gQA1C5oWBZAAxNgNt-4" value="1" style="text;html=1;strokeColor=none;fillColor=none;align=center;verticalAlign=middle;whiteSpace=wrap;rounded=0;" vertex="1" parent="1">
          <mxGeometry x="430" y="70" width="50" height="30" as="geometry" />
        </mxCell>
        <mxCell id="hA2gQA1C5oWBZAAxNgNt-5" value="教师" style="rounded=0;whiteSpace=wrap;html=1;" vertex="1" parent="1">
          <mxGeometry x="520" y="160" width="80" height="40" as="geometry" />
        </mxCell>
        <mxCell id="hA2gQA1C5oWBZAAxNgNt-6" value="学生" style="rounded=0;whiteSpace=wrap;html=1;" vertex="1" parent="1">
          <mxGeometry x="200" y="160" width="80" height="40" as="geometry" />
        </mxCell>
        <mxCell id="hA2gQA1C5oWBZAAxNgNt-7" value="课程" style="rounded=0;whiteSpace=wrap;html=1;" vertex="1" parent="1">
          <mxGeometry x="360" y="280" width="80" height="40" as="geometry" />
        </mxCell>
        <mxCell id="hA2gQA1C5oWBZAAxNgNt-8" value="教授" style="rhombus;whiteSpace=wrap;html=1;" vertex="1" parent="1">
          <mxGeometry x="440" y="220" width="80" height="40" as="geometry" />
        </mxCell>
        <mxCell id="hA2gQA1C5oWBZAAxNgNt-9" value="属于" style="rhombus;whiteSpace=wrap;html=1;" vertex="1" parent="1">
          <mxGeometry x="440" y="100" width="80" height="40" as="geometry" />
        </mxCell>
        <mxCell id="hA2gQA1C5oWBZAAxNgNt-10" value="属于" style="rhombus;whiteSpace=wrap;html=1;" vertex="1" parent="1">
          <mxGeometry x="280" y="100" width="80" height="40" as="geometry" />
        </mxCell>
        <mxCell id="hA2gQA1C5oWBZAAxNgNt-12" value="" style="endArrow=none;html=1;rounded=0;exitX=0.75;exitY=0;exitDx=0;exitDy=0;entryX=0;entryY=1;entryDx=0;entryDy=0;" edge="1" parent="1" source="hA2gQA1C5oWBZAAxNgNt-7" target="hA2gQA1C5oWBZAAxNgNt-8">
          <mxGeometry width="50" height="50" relative="1" as="geometry">
            <mxPoint x="440" y="330" as="sourcePoint" />
            <mxPoint x="490" y="280" as="targetPoint" />
          </mxGeometry>
        </mxCell>
        <mxCell id="hA2gQA1C5oWBZAAxNgNt-13" value="" style="endArrow=none;html=1;rounded=0;exitX=1;exitY=0;exitDx=0;exitDy=0;entryX=0.5;entryY=1;entryDx=0;entryDy=0;" edge="1" parent="1" source="hA2gQA1C5oWBZAAxNgNt-8" target="hA2gQA1C5oWBZAAxNgNt-5">
          <mxGeometry width="50" height="50" relative="1" as="geometry">
            <mxPoint x="530" y="250" as="sourcePoint" />
            <mxPoint x="570" y="220" as="targetPoint" />
          </mxGeometry>
        </mxCell>
        <mxCell id="hA2gQA1C5oWBZAAxNgNt-14" value="" style="endArrow=none;html=1;rounded=0;exitX=0.25;exitY=0;exitDx=0;exitDy=0;entryX=1;entryY=1;entryDx=0;entryDy=0;" edge="1" parent="1" source="hA2gQA1C5oWBZAAxNgNt-7" target="hA2gQA1C5oWBZAAxNgNt-3">
          <mxGeometry width="50" height="50" relative="1" as="geometry">
            <mxPoint x="440" y="330" as="sourcePoint" />
            <mxPoint x="490" y="280" as="targetPoint" />
          </mxGeometry>
        </mxCell>
        <mxCell id="hA2gQA1C5oWBZAAxNgNt-15" value="" style="endArrow=none;html=1;rounded=0;exitX=0;exitY=0;exitDx=0;exitDy=0;entryX=0.5;entryY=1;entryDx=0;entryDy=0;" edge="1" parent="1" source="hA2gQA1C5oWBZAAxNgNt-3" target="hA2gQA1C5oWBZAAxNgNt-6">
          <mxGeometry width="50" height="50" relative="1" as="geometry">
            <mxPoint x="440" y="330" as="sourcePoint" />
            <mxPoint x="490" y="280" as="targetPoint" />
          </mxGeometry>
        </mxCell>
        <mxCell id="hA2gQA1C5oWBZAAxNgNt-16" value="" style="endArrow=none;html=1;rounded=0;exitX=0.5;exitY=0;exitDx=0;exitDy=0;" edge="1" parent="1" source="hA2gQA1C5oWBZAAxNgNt-6" target="hA2gQA1C5oWBZAAxNgNt-10">
          <mxGeometry width="50" height="50" relative="1" as="geometry">
            <mxPoint x="440" y="330" as="sourcePoint" />
            <mxPoint x="490" y="280" as="targetPoint" />
          </mxGeometry>
        </mxCell>
        <mxCell id="hA2gQA1C5oWBZAAxNgNt-17" value="" style="endArrow=none;html=1;rounded=0;exitX=1;exitY=1;exitDx=0;exitDy=0;entryX=0.5;entryY=0;entryDx=0;entryDy=0;" edge="1" parent="1" source="hA2gQA1C5oWBZAAxNgNt-9" target="hA2gQA1C5oWBZAAxNgNt-5">
          <mxGeometry width="50" height="50" relative="1" as="geometry">
            <mxPoint x="440" y="330" as="sourcePoint" />
            <mxPoint x="490" y="280" as="targetPoint" />
          </mxGeometry>
        </mxCell>
        <mxCell id="hA2gQA1C5oWBZAAxNgNt-18" value="" style="endArrow=none;html=1;rounded=0;exitX=1;exitY=0;exitDx=0;exitDy=0;entryX=0.25;entryY=1;entryDx=0;entryDy=0;" edge="1" parent="1" source="hA2gQA1C5oWBZAAxNgNt-10" target="hA2gQA1C5oWBZAAxNgNt-1">
          <mxGeometry width="50" height="50" relative="1" as="geometry">
            <mxPoint x="440" y="330" as="sourcePoint" />
            <mxPoint x="490" y="280" as="targetPoint" />
          </mxGeometry>
        </mxCell>
        <mxCell id="hA2gQA1C5oWBZAAxNgNt-19" value="" style="endArrow=none;html=1;rounded=0;exitX=0.75;exitY=1;exitDx=0;exitDy=0;" edge="1" parent="1" source="hA2gQA1C5oWBZAAxNgNt-1" target="hA2gQA1C5oWBZAAxNgNt-9">
          <mxGeometry width="50" height="50" relative="1" as="geometry">
            <mxPoint x="440" y="330" as="sourcePoint" />
            <mxPoint x="490" y="280" as="targetPoint" />
          </mxGeometry>
        </mxCell>
        <mxCell id="hA2gQA1C5oWBZAAxNgNt-20" value="1" style="text;html=1;strokeColor=none;fillColor=none;align=center;verticalAlign=middle;whiteSpace=wrap;rounded=0;" vertex="1" parent="1">
          <mxGeometry x="320" y="70" width="50" height="30" as="geometry" />
        </mxCell>
        <mxCell id="hA2gQA1C5oWBZAAxNgNt-21" value="1" style="text;html=1;strokeColor=none;fillColor=none;align=center;verticalAlign=middle;whiteSpace=wrap;rounded=0;" vertex="1" parent="1">
          <mxGeometry x="510" y="210" width="50" height="30" as="geometry" />
        </mxCell>
        <mxCell id="hA2gQA1C5oWBZAAxNgNt-22" value="n" style="text;html=1;strokeColor=none;fillColor=none;align=center;verticalAlign=middle;whiteSpace=wrap;rounded=0;" vertex="1" parent="1">
          <mxGeometry x="430" y="250" width="50" height="30" as="geometry" />
        </mxCell>
        <mxCell id="hA2gQA1C5oWBZAAxNgNt-23" value="n" style="text;html=1;strokeColor=none;fillColor=none;align=center;verticalAlign=middle;whiteSpace=wrap;rounded=0;" vertex="1" parent="1">
          <mxGeometry x="510" y="120" width="50" height="30" as="geometry" />
        </mxCell>
        <mxCell id="hA2gQA1C5oWBZAAxNgNt-24" value="n" style="text;html=1;strokeColor=none;fillColor=none;align=center;verticalAlign=middle;whiteSpace=wrap;rounded=0;" vertex="1" parent="1">
          <mxGeometry x="230" y="120" width="50" height="30" as="geometry" />
        </mxCell>
        <mxCell id="hA2gQA1C5oWBZAAxNgNt-25" value="m" style="text;html=1;strokeColor=none;fillColor=none;align=center;verticalAlign=middle;whiteSpace=wrap;rounded=0;" vertex="1" parent="1">
          <mxGeometry x="320" y="260" width="50" height="30" as="geometry" />
        </mxCell>
        <mxCell id="hA2gQA1C5oWBZAAxNgNt-26" value="k" style="text;html=1;strokeColor=none;fillColor=none;align=center;verticalAlign=middle;whiteSpace=wrap;rounded=0;" vertex="1" parent="1">
          <mxGeometry x="230" y="210" width="50" height="30" as="geometry" />
        </mxCell>
        <mxCell id="hA2gQA1C5oWBZAAxNgNt-27" value="姓名" style="ellipse;whiteSpace=wrap;html=1;" vertex="1" parent="1">
          <mxGeometry x="80" y="140" width="80" height="40" as="geometry" />
        </mxCell>
        <mxCell id="hA2gQA1C5oWBZAAxNgNt-28" value="学号" style="ellipse;whiteSpace=wrap;html=1;" vertex="1" parent="1">
          <mxGeometry x="80" y="80" width="80" height="40" as="geometry" />
        </mxCell>
        <mxCell id="hA2gQA1C5oWBZAAxNgNt-29" value="出生日期" style="ellipse;whiteSpace=wrap;html=1;" vertex="1" parent="1">
          <mxGeometry x="80" y="260" width="80" height="40" as="geometry" />
        </mxCell>
        <mxCell id="hA2gQA1C5oWBZAAxNgNt-30" value="性别" style="ellipse;whiteSpace=wrap;html=1;" vertex="1" parent="1">
          <mxGeometry x="80" y="200" width="80" height="40" as="geometry" />
        </mxCell>
        <mxCell id="hA2gQA1C5oWBZAAxNgNt-31" value="成绩" style="ellipse;whiteSpace=wrap;html=1;" vertex="1" parent="1">
          <mxGeometry x="200" y="270" width="80" height="40" as="geometry" />
        </mxCell>
        <mxCell id="hA2gQA1C5oWBZAAxNgNt-32" value="教师姓名" style="ellipse;whiteSpace=wrap;html=1;" vertex="1" parent="1">
          <mxGeometry x="640" y="180" width="80" height="40" as="geometry" />
        </mxCell>
        <mxCell id="hA2gQA1C5oWBZAAxNgNt-33" value="教师编号" style="ellipse;whiteSpace=wrap;html=1;" vertex="1" parent="1">
          <mxGeometry x="640" y="120" width="80" height="40" as="geometry" />
        </mxCell>
        <mxCell id="hA2gQA1C5oWBZAAxNgNt-34" value="学分" style="ellipse;whiteSpace=wrap;html=1;" vertex="1" parent="1">
          <mxGeometry x="208.25" y="340" width="80" height="40" as="geometry" />
        </mxCell>
        <mxCell id="hA2gQA1C5oWBZAAxNgNt-35" value="课程号" style="ellipse;whiteSpace=wrap;html=1;" vertex="1" parent="1">
          <mxGeometry x="308.25" y="340" width="80" height="40" as="geometry" />
        </mxCell>
        <mxCell id="hA2gQA1C5oWBZAAxNgNt-36" value="课程名" style="ellipse;whiteSpace=wrap;html=1;" vertex="1" parent="1">
          <mxGeometry x="411.75" y="340" width="80" height="40" as="geometry" />
        </mxCell>
        <mxCell id="hA2gQA1C5oWBZAAxNgNt-37" value="课程类型" style="ellipse;whiteSpace=wrap;html=1;" vertex="1" parent="1">
          <mxGeometry x="511.75" y="340" width="80" height="40" as="geometry" />
        </mxCell>
        <mxCell id="hA2gQA1C5oWBZAAxNgNt-38" value="系号" style="ellipse;whiteSpace=wrap;html=1;" vertex="1" parent="1">
          <mxGeometry x="310" y="-20" width="80" height="40" as="geometry" />
        </mxCell>
        <mxCell id="hA2gQA1C5oWBZAAxNgNt-39" value="系名" style="ellipse;whiteSpace=wrap;html=1;" vertex="1" parent="1">
          <mxGeometry x="410" y="-20" width="80" height="40" as="geometry" />
        </mxCell>
        <mxCell id="hA2gQA1C5oWBZAAxNgNt-40" value="" style="endArrow=none;html=1;rounded=0;exitX=0.25;exitY=1;exitDx=0;exitDy=0;entryX=0.5;entryY=0;entryDx=0;entryDy=0;" edge="1" parent="1" source="hA2gQA1C5oWBZAAxNgNt-7" target="hA2gQA1C5oWBZAAxNgNt-35">
          <mxGeometry width="50" height="50" relative="1" as="geometry">
            <mxPoint x="444" y="294" as="sourcePoint" />
            <mxPoint x="494" y="244" as="targetPoint" />
          </mxGeometry>
        </mxCell>
        <mxCell id="hA2gQA1C5oWBZAAxNgNt-41" value="" style="endArrow=none;html=1;rounded=0;exitX=0.5;exitY=0;exitDx=0;exitDy=0;entryX=0;entryY=0.75;entryDx=0;entryDy=0;" edge="1" parent="1" source="hA2gQA1C5oWBZAAxNgNt-34" target="hA2gQA1C5oWBZAAxNgNt-7">
          <mxGeometry width="50" height="50" relative="1" as="geometry">
            <mxPoint x="444" y="294" as="sourcePoint" />
            <mxPoint x="494" y="244" as="targetPoint" />
          </mxGeometry>
        </mxCell>
        <mxCell id="hA2gQA1C5oWBZAAxNgNt-42" value="" style="endArrow=none;html=1;rounded=0;exitX=0.5;exitY=0;exitDx=0;exitDy=0;entryX=0.75;entryY=1;entryDx=0;entryDy=0;" edge="1" parent="1" source="hA2gQA1C5oWBZAAxNgNt-36" target="hA2gQA1C5oWBZAAxNgNt-7">
          <mxGeometry width="50" height="50" relative="1" as="geometry">
            <mxPoint x="440" y="290" as="sourcePoint" />
            <mxPoint x="490" y="240" as="targetPoint" />
          </mxGeometry>
        </mxCell>
        <mxCell id="hA2gQA1C5oWBZAAxNgNt-43" value="" style="endArrow=none;html=1;rounded=0;exitX=1;exitY=0.75;exitDx=0;exitDy=0;entryX=0.5;entryY=0;entryDx=0;entryDy=0;" edge="1" parent="1" source="hA2gQA1C5oWBZAAxNgNt-7" target="hA2gQA1C5oWBZAAxNgNt-37">
          <mxGeometry width="50" height="50" relative="1" as="geometry">
            <mxPoint x="440" y="290" as="sourcePoint" />
            <mxPoint x="490" y="240" as="targetPoint" />
          </mxGeometry>
        </mxCell>
        <mxCell id="hA2gQA1C5oWBZAAxNgNt-44" value="" style="endArrow=none;html=1;rounded=0;exitX=1;exitY=0;exitDx=0;exitDy=0;entryX=0;entryY=1;entryDx=0;entryDy=0;" edge="1" parent="1" source="hA2gQA1C5oWBZAAxNgNt-31" target="hA2gQA1C5oWBZAAxNgNt-3">
          <mxGeometry width="50" height="50" relative="1" as="geometry">
            <mxPoint x="440" y="290" as="sourcePoint" />
            <mxPoint x="490" y="240" as="targetPoint" />
          </mxGeometry>
        </mxCell>
        <mxCell id="hA2gQA1C5oWBZAAxNgNt-45" value="" style="endArrow=none;html=1;rounded=0;exitX=0;exitY=0.5;exitDx=0;exitDy=0;entryX=1;entryY=0.75;entryDx=0;entryDy=0;" edge="1" parent="1" source="hA2gQA1C5oWBZAAxNgNt-32" target="hA2gQA1C5oWBZAAxNgNt-5">
          <mxGeometry width="50" height="50" relative="1" as="geometry">
            <mxPoint x="440" y="290" as="sourcePoint" />
            <mxPoint x="490" y="240" as="targetPoint" />
          </mxGeometry>
        </mxCell>
        <mxCell id="hA2gQA1C5oWBZAAxNgNt-46" value="" style="endArrow=none;html=1;rounded=0;exitX=1;exitY=0.25;exitDx=0;exitDy=0;entryX=0;entryY=0.5;entryDx=0;entryDy=0;" edge="1" parent="1" source="hA2gQA1C5oWBZAAxNgNt-5" target="hA2gQA1C5oWBZAAxNgNt-33">
          <mxGeometry width="50" height="50" relative="1" as="geometry">
            <mxPoint x="440" y="290" as="sourcePoint" />
            <mxPoint x="490" y="240" as="targetPoint" />
          </mxGeometry>
        </mxCell>
        <mxCell id="hA2gQA1C5oWBZAAxNgNt-47" value="" style="endArrow=none;html=1;rounded=0;exitX=1;exitY=0.5;exitDx=0;exitDy=0;entryX=0.25;entryY=1;entryDx=0;entryDy=0;" edge="1" parent="1" source="hA2gQA1C5oWBZAAxNgNt-29" target="hA2gQA1C5oWBZAAxNgNt-6">
          <mxGeometry width="50" height="50" relative="1" as="geometry">
            <mxPoint x="440" y="290" as="sourcePoint" />
            <mxPoint x="490" y="240" as="targetPoint" />
          </mxGeometry>
        </mxCell>
        <mxCell id="hA2gQA1C5oWBZAAxNgNt-48" value="" style="endArrow=none;html=1;rounded=0;exitX=1;exitY=0.5;exitDx=0;exitDy=0;entryX=0;entryY=0.75;entryDx=0;entryDy=0;" edge="1" parent="1" source="hA2gQA1C5oWBZAAxNgNt-30" target="hA2gQA1C5oWBZAAxNgNt-6">
          <mxGeometry width="50" height="50" relative="1" as="geometry">
            <mxPoint x="440" y="290" as="sourcePoint" />
            <mxPoint x="490" y="240" as="targetPoint" />
          </mxGeometry>
        </mxCell>
        <mxCell id="hA2gQA1C5oWBZAAxNgNt-49" value="" style="endArrow=none;html=1;rounded=0;exitX=0;exitY=0.5;exitDx=0;exitDy=0;entryX=1;entryY=0.5;entryDx=0;entryDy=0;" edge="1" parent="1" source="hA2gQA1C5oWBZAAxNgNt-6" target="hA2gQA1C5oWBZAAxNgNt-27">
          <mxGeometry width="50" height="50" relative="1" as="geometry">
            <mxPoint x="440" y="290" as="sourcePoint" />
            <mxPoint x="490" y="240" as="targetPoint" />
          </mxGeometry>
        </mxCell>
        <mxCell id="hA2gQA1C5oWBZAAxNgNt-50" value="" style="endArrow=none;html=1;rounded=0;exitX=0;exitY=0.25;exitDx=0;exitDy=0;entryX=1;entryY=1;entryDx=0;entryDy=0;" edge="1" parent="1" source="hA2gQA1C5oWBZAAxNgNt-6" target="hA2gQA1C5oWBZAAxNgNt-28">
          <mxGeometry width="50" height="50" relative="1" as="geometry">
            <mxPoint x="440" y="290" as="sourcePoint" />
            <mxPoint x="490" y="240" as="targetPoint" />
          </mxGeometry>
        </mxCell>
        <mxCell id="hA2gQA1C5oWBZAAxNgNt-51" value="" style="endArrow=none;html=1;rounded=0;exitX=0.75;exitY=0;exitDx=0;exitDy=0;entryX=0.5;entryY=1;entryDx=0;entryDy=0;" edge="1" parent="1" source="hA2gQA1C5oWBZAAxNgNt-1" target="hA2gQA1C5oWBZAAxNgNt-39">
          <mxGeometry width="50" height="50" relative="1" as="geometry">
            <mxPoint x="440" y="290" as="sourcePoint" />
            <mxPoint x="490" y="240" as="targetPoint" />
          </mxGeometry>
        </mxCell>
        <mxCell id="hA2gQA1C5oWBZAAxNgNt-52" value="" style="endArrow=none;html=1;rounded=0;exitX=0.25;exitY=0;exitDx=0;exitDy=0;entryX=0.5;entryY=1;entryDx=0;entryDy=0;" edge="1" parent="1" source="hA2gQA1C5oWBZAAxNgNt-1" target="hA2gQA1C5oWBZAAxNgNt-38">
          <mxGeometry width="50" height="50" relative="1" as="geometry">
            <mxPoint x="440" y="290" as="sourcePoint" />
            <mxPoint x="490" y="240" as="targetPoint" />
          </mxGeometry>
        </mxCell>
      </root>
    </mxGraphModel>
  </diagram>
</mxfile>
